<svg xmlns="http://www.w3.org/2000/svg" width="16.209" height="14.183" viewBox="0 0 20 18.664">
    <g fill="#005277">
        <path fill-rule="evenodd" d="M3.348 15.868a1.25 1.25 0 0 1 .359 1 13.713 13.713 0 0 1-.5 2.5A14.756 14.756 0 0 0 6.5 18.253a1.25 1.25 0 0 1 .887-.092A10.075 10.075 0 0 0 10 18.5c5 0 8.75-3.509 8.75-7.5S15 3.5 10 3.5 1.25 7.01 1.25 11a6.868 6.868 0 0 0 2.1 4.867zm-.616 4.881q-.444.088-.891.161a.325.325 0 0 1-.341-.453q.166-.393.305-.8v-.012a13.072 13.072 0 0 0 .655-2.9A8.118 8.118 0 0 1 0 11c0-4.833 4.477-8.75 10-8.75S20 6.167 20 11s-4.477 8.75-10 8.75a11.325 11.325 0 0 1-2.934-.383 17.09 17.09 0 0 1-4.335 1.381z" transform="translate(0 -2.25)"/>
        <path d="M9.25 17A1.25 1.25 0 1 1 8 15.75 1.25 1.25 0 0 1 9.25 17zm5 0A1.25 1.25 0 1 1 13 15.75 1.25 1.25 0 0 1 14.25 17zm5 0A1.25 1.25 0 1 1 18 15.75 1.25 1.25 0 0 1 19.25 17z" transform="translate(0 -2.25) translate(-3 -6)"/>
    </g>
</svg>
